<svg width="249" height="133" viewBox="0 0 249 133" fill="none" xmlns="http://www.w3.org/2000/svg">
<rect width="249" height="133" fill="#1E1E1E"/>
<g clip-path="url(#clip0_0_1)">
<rect width="249" height="133" fill="#30B130"/>
<path d="M21.1818 108L36.6364 14.9091H76.8182C83.7273 14.9091 89.5606 16.1667 94.3182 18.6818C99.0758 21.197 102.5 24.8182 104.591 29.5455C106.682 34.2727 107.182 39.9394 106.091 46.5455C105 53.2121 102.591 58.8333 98.8636 63.4091C95.1667 67.9545 90.4545 71.4091 84.7273 73.7727C79.0303 76.1061 72.6364 77.2727 65.5455 77.2727H41.5455L44.8182 57.6364H63.7273C66.697 57.6364 69.303 57.2727 71.5455 56.5455C73.7879 55.7879 75.6061 54.6061 77 53C78.3939 51.3636 79.303 49.2121 79.7273 46.5455C80.1515 43.8788 79.9394 41.7121 79.0909 40.0455C78.2424 38.3485 76.8333 37.1061 74.8636 36.3182C72.8939 35.5 70.4545 35.0909 67.5455 35.0909H58.6364L46.4545 108H21.1818ZM82.8182 65.2727L99 108H71.5455L55.9091 65.2727H82.8182ZM122.477 109.455C118.932 109.455 116.038 108.227 113.795 105.773C111.583 103.288 110.659 100.273 111.023 96.7273C111.386 93.2727 112.947 90.3182 115.705 87.8636C118.492 85.4091 121.659 84.1818 125.205 84.1818C128.568 84.1818 131.371 85.4091 133.614 87.8636C135.886 90.3182 136.841 93.2727 136.477 96.7273C136.235 99.0909 135.402 101.242 133.977 103.182C132.583 105.091 130.856 106.621 128.795 107.773C126.765 108.894 124.659 109.455 122.477 109.455ZM147.932 108L163.386 14.9091H230.477L227.023 35.2727H185.205L182.659 51.2727H221.023L217.568 71.6364H179.205L176.659 87.6364H218.295L214.841 108H147.932Z" fill="white"/>
</g>
<defs>
<clipPath id="clip0_0_1">
<rect width="249" height="133" fill="white"/>
</clipPath>
</defs>
</svg>
